<svg width="64" height="64" viewBox="0 0 64 64" fill="none" xmlns="http://www.w3.org/2000/svg">
  <!-- Cercle extérieur -->
  <circle cx="32" cy="32" r="30" stroke="url(#paint0_linear)" stroke-width="4" fill="none"/>
  
  <!-- Loupe -->
  <circle cx="24" cy="24" r="10" stroke="url(#paint1_linear)" stroke-width="2" fill="none"/>
  <line x1="30" y1="30" x2="40" y2="40" stroke="url(#paint1_linear)" stroke-width="2" stroke-linecap="round"/>

  <!-- Graphique SEO -->
  <path d="M20 40 L24 34 L28 38 L32 28 L36 36 L40 30" stroke="url(#paint2_linear)" stroke-width="2" fill="none"/>
  <circle cx="24" cy="34" r="2" fill="url(#paint2_linear)"/>
  <circle cx="28" cy="38" r="2" fill="url(#paint2_linear)"/>
  <circle cx="32" cy="28" r="2" fill="url(#paint2_linear)"/>
  <circle cx="36" cy="36" r="2" fill="url(#paint2_linear)"/>
  <circle cx="40" cy="30" r="2" fill="url(#paint2_linear)"/>

  <!-- Flèche de croissance -->
  <path d="M20 40 L20 44 L48 44 L48 16 L52 20" stroke="url(#paint3_linear)" stroke-width="2" fill="none"/>

  <defs>
    <linearGradient id="paint0_linear" x1="0" y1="0" x2="64" y2="64" gradientUnits="userSpaceOnUse">
      <stop stop-color="#A4508B"/>
      <stop offset="1" stop-color="#5F0A87"/>
    </linearGradient>
    <linearGradient id="paint1_linear" x1="14" y1="14" x2="34" y2="34" gradientUnits="userSpaceOnUse">
      <stop stop-color="#A4508B"/>
      <stop offset="1" stop-color="#5F0A87"/>
    </linearGradient>
    <linearGradient id="paint2_linear" x1="20" y1="28" x2="40" y2="40" gradientUnits="userSpaceOnUse">
      <stop stop-color="#A4508B"/>
      <stop offset="1" stop-color="#5F0A87"/>
    </linearGradient>
    <linearGradient id="paint3_linear" x1="20" y1="16" x2="52" y2="44" gradientUnits="userSpaceOnUse">
      <stop stop-color="#A4508B"/>
      <stop offset="1" stop-color="#5F0A87"/>
    </linearGradient>
  </defs>
</svg>